<svg xmlns="http://www.w3.org/2000/svg" viewBox="0 0 360 245" fill="none" stroke="#414c43" stroke-width="2.6" stroke-linecap="round" stroke-linejoin="round"><path d="M17 30Q93 20 171 30t175-5M16 219q104-7 169 3t154-7" opacity=".3" stroke-dasharray="3 6"/><rect x="30" y="48" width="112" height="146" rx="9" fill="#c9c2d7"/><path d="M66 40q20-6 40 0v16q-20 5-40 0z" fill="#e8be86"/><path d="M47 80l7 7 12-13M76 82q26-3 50 0M47 112l7 7 12-13M76 114q26-3 50 0M47 144l7 7 12-13M76 146q18-2 34 0"/><path d="M182 96q52-5 84 1l1 66q-44 4-85-1z" fill="#f1dbc3"/><path d="M267 116q27-2 38 12l8 22v13q-22 3-46 0z" fill="#b0c9c5"/><path d="M275 124q14 0 21 16l-21 1z"/><circle cx="212" cy="168" r="12" fill="#f5f0e5"/><circle cx="289" cy="169" r="12" fill="#f5f0e5"/><path d="M196 118q26-4 50 0M160 132h-12M166 146h-22M162 160h-12" stroke="#b3644e" stroke-width="3"/><text x="34" y="209" fill="#414c43" stroke="none" font-size="13" font-family="cursive">shipping partner</text><text x="226" y="209" fill="#414c43" stroke="none" font-size="13" font-family="cursive">dw-admin</text></svg>
