<svg xmlns="http://www.w3.org/2000/svg" viewBox="0 0 360 245" fill="none" stroke="#414c43" stroke-width="2.6" stroke-linecap="round" stroke-linejoin="round"><path d="M17 30Q93 20 171 30t175-5M16 219q104-7 169 3t154-7" opacity=".3" stroke-dasharray="3 6"/><rect x="24" y="44" width="96" height="150" rx="15" fill="#f1dbc3"/><path d="M40 57q33-6 62 1v110q-28 5-62-1zM62 180q18 3 28-1"/><path d="M71 76q16 1 15 17-2 11-15 25-14-13-15-25 0-17 15-17zM71 87l1 1" stroke="#b3644e" stroke-width="3"/><path d="M47 135q24-4 48 0v19q-24 3-48 0zM47 128q6-5 13 0M55 154v6M88 154v6" fill="#b0c9c5"/><path d="M138 150q40-60 96-72" stroke="#b3644e" stroke-width="3" stroke-dasharray="6 7"/><path d="M246 70l52-19q9-2 8 6l-45 26 10 22-9 3-15-18-19 8-5-5 16-12z" fill="#c9c2d7"/><path d="M200 146q30-8 60 0 30 6 58-2M232 128q9-15 18 0M268 118q11-20 22 0" /><circle cx="318" cy="44" r="11" fill="#e8be86"/><text x="36" y="209" fill="#414c43" stroke="none" font-size="13" font-family="cursive">travela</text><text x="226" y="209" fill="#414c43" stroke="none" font-size="13" font-family="cursive">book a stay</text></svg>
